{"title":"Dune.1984.original.theatrical.BRrip.XviD.AC3-Atilla82","uid":7097313,"size":1459330629,"categoryP":"video","categoryS":"movies","magnet":"?xt=urn:btih:22239207f05753d2729925ddef109ac906123dda&amp;dn=Dune.1984.original.theatrical.BRrip.XviD.AC3-Atilla82&amp;tr=udp%3A%2F%2Ftracker.openbittorrent.com%3A80&amp;tr=udp%3A%2F%2Fopen.demonii.com%3A1337&amp;tr=udp%3A%2F%2Ftracker.coppersurfer.tk%3A6969&amp;tr=udp%3A%2F%2Fexodus.desync.com%3A6969","seeders":2,"leechers":0,"uploader":"Atilla82","files":8,"time":1331593930,"description":"In the distant future, a man appears who may be the prophet that a long-suffering galaxy has been waiting for.\n\n\nsubtitles: English, Croatian, French, Spanish, Brazilian (.srt)\n\n\nGeneral\nComplete name : Dune.1984.original.theatrical.BRrip.XviD.AC3-Atilla82.avi\nFormat : AVI\nFormat/Info : Audio Video Interleave\nFile size : 1.36 GiB\nDuration : 2h 16mn\nOverall bit rate : 1 424 Kbps\nMovie name : Dune (1984) Original - atilla82\nDirector : Atilla82\nSubject : Dune (1984) Original - atilla82\nWriting application : Nandub v1.0rc2\nWriting library : Nandub build 1853/release\n\nVideo\nID : 0\nFormat : MPEG-4 Visual\nFormat profile : Advanced Simple@L5\nFormat settings, BVOP : No\nFormat settings, QPel : Yes\nFormat settings, GMC : No warppoints\nFormat settings, Matrix : Default (MPEG)\nCodec ID : XVID\nCodec ID/Hint : XviD\nDuration : 2h 16mn\nBit rate : 1 095 Kbps\nWidth : 720 pixels\nHeight : 304 pixels\nDisplay aspect ratio : 2.35:1\nFrame rate : 23.976 fps\nColor space : YUV\nChroma subsampling : 4:2:0\nBit depth : 8 bits\nScan type : Progressive\nCompression mode : Lossy\nBits/(Pixel*Frame) : 0.209\nStream size : 1.04 GiB (77%)\nWriting library : XviD 64\n\nAudio\nID : 1\nFormat : AC-3\nFormat/Info : Audio Coding 3\nMode extension : CM (complete main)\nCodec ID : 2000\nDuration : 2h 16mn\nBit rate mode : Constant\nBit rate : 320 Kbps\nChannel(s) : 6 channels\nChannel positions : Front: L C R, Side: L R, LFE\nSampling rate : 48.0 KHz\nBit depth : 16 bits\nCompression mode : Lossy\nDelay relative to video : 1ms\nStream size : 313 MiB (22%)\nAlignment : Split accross interleaves\nInterleave, duration : 42 ms (1.00 video frame)\nInterleave, preload duration : 500 ms\n\n\nSCREENSHOTS: &lt;a href=&quot;\nhttp://www.pohrani.com/f/P/Fl/anaMeqt/dune1984originaltheatric.jpg&quot; rel=&quot;nofollow&quot; target=&quot;_NEW&quot;&gt;\nhttp://www.pohrani.com/f/P/Fl/anaMeqt/dune1984originaltheatric.jpg&lt;/a&gt;\n","torrent":{"xt":"urn:btih:22239207f05753d2729925ddef109ac906123dda","amp;dn":"Dune.1984.original.theatrical.BRrip.XviD.AC3-Atilla82","amp;tr":["udp%3A%2F%2Ftracker.openbittorrent.com%3A80","udp%3A%2F%2Fopen.demonii.com%3A1337","udp%3A%2F%2Ftracker.coppersurfer.tk%3A6969","udp%3A%2F%2Fexodus.desync.com%3A6969"],"infoHash":"22239207f05753d2729925ddef109ac906123dda","infoHashBuffer":{"type":"Buffer","data":[34,35,146,7,240,87,83,210,114,153,37,221,239,16,154,201,6,18,61,218]},"announce":[],"urlList":[]}}